<?xml version="1.0" encoding="utf-8"?>
<!-- Generator: Adobe Illustrator 20.1.0, SVG Export Plug-In . SVG Version: 6.00 Build 0)  -->
<!DOCTYPE svg PUBLIC "-//W3C//DTD SVG 1.1//EN" "http://www.w3.org/Graphics/SVG/1.1/DTD/svg11.dtd">
<svg version="1.1" id="Calque_1" xmlns="http://www.w3.org/2000/svg" xmlns:xlink="http://www.w3.org/1999/xlink" x="0px" y="0px"
	 viewBox="0 0 67 29" style="enable-background:new 0 0 67 29;" xml:space="preserve">
<style type="text/css">
	.st0{opacity:0.11;fill:#414142;enable-background:new    ;}
	.st1{fill:#818181;}
	.st2{fill:#FFFFFF;}
	.st3{fill:#FF3333;fill-opacity:0.1;}
	.st4{fill:#FF3333;fill-opacity:0.2;}
	.st5{fill:none;stroke:#FF3333;stroke-width:0.5;stroke-miterlimit:10;}
	.st6{display:none;fill:none;stroke:#FF3333;stroke-width:0.5;}
</style>
<title>A8E92DD3-9E12-4190-A0C4-CBD230658380</title>
<desc>Created with sketchtool.</desc>
<g id="Page-1">
	<g id="NOTES" transform="translate(-33.000000, -1672.000000)">
		
			<g id="Sedan_BackGlass" transform="translate(66.500000, 1686.500000) scale(-1, 1) translate(-66.500000, -1686.500000) translate(33.000000, 1672.000000)">
			<path id="Shape" class="st0" d="M66.3,25c0-1.7-14.8-3.1-33.1-3S0.1,23.6,0,25.4c0,1.7,14.8,3.1,33.1,3S66.3,26.8,66.3,25
				L66.3,25z"/>
			<path id="Shape_1_" class="st1" d="M0.7,13.3c0.1-0.9,0.9-1.7,1.7-1.8s3.9-1.9,5-2.5s2.8-2.6,8.1-5.8S26.8,0.1,30.7,0
				s12.7,0.5,15.7,0.9C49.5,1.3,57,5.3,57,5.3s3.2,0.1,4.7,0.2s1.4,1,1.7,2.2c0.8,0.7,1.2,3,1.2,3.6c0,0.7-0.2,2.2,0.4,2.9
				c0.7,0.6,0.6,2.2,0.6,3c0.2,0.5,0.2,2.8-0.7,4c-0.4,0.5-2.6,1-5.3,1.3c-0.4,2.1-1.6,3.5-4.9,3.6c-2.7,0.1-3.9-1-4.5-2.6L39,23.6
				c-0.4,2.6-1.9,4.3-5.9,4.5c-3.9,0.1-5.3-1.7-5.8-4.4L8.5,22.6c-0.4,1.6-1.3,2.7-3.8,2.8c-2.9,0.1-3.7-1.6-3.9-3.8
				c-0.1,0-0.2,0-0.4-0.1C-0.7,18.8,0.6,14.2,0.7,13.3L0.7,13.3z"/>
			<path id="Shape_2_" class="st2" d="M42.8,5.5l13.9-0.2c0,0-8.3-4-10.6-4.2C43.9,0.9,35,1,35,1.3C35,1.5,41.3,5.4,42.8,5.5
				L42.8,5.5z"/>
			<path id="Shape_3_" class="st3" d="M42.8,5.5l13.9-0.2c0,0-8.3-4-10.6-4.2C43.9,0.9,35,1,35,1.3C35,1.5,41.3,5.4,42.8,5.5
				L42.8,5.5z"/>
			<path id="Combined-Shape" class="st4" d="M42.8,5.4L56,5.2c0,0-7.5-3.7-9.4-3.9c-2-0.2-11.1,0-11.1,0.2
				C35.5,1.7,41.5,5.3,42.8,5.4z"/>
			<path id="Shape_4_" class="st2" d="M32.4,6.2l4.7-1c0,0-4.7-3.3-5.1-3.3C32.1,2.7,32.4,6.2,32.4,6.2L32.4,6.2z"/>
			<path id="Shape_5_" class="st2" d="M31.2,1.5L31.4,6L21,7.5L23.5,1C23.5,1,29.3,0.9,31.2,1.5L31.2,1.5z"/>
			<path id="Shape_6_" class="st2" d="M22.8,1L20,7.6L10,8.9C10,8.9,13.6,2.2,22.8,1L22.8,1z"/>
			<path id="Shape_7_" class="st2" d="M11.7,6.2c0,0-2,2.3-2,2.8C9,9,7.5,9.3,7.5,9.3L11.7,6.2L11.7,6.2z"/>
			<path id="Shape_9_" class="st2" d="M53,9.8c0,0-2.3-2.6-14.7-1.6c-0.9,0.1,0.1,1,1.3,1.4c1.1,0.4,1.9,1.2,1.9,2.2
				c1.3,0.1,9.8-0.2,9.8-0.2L53,9.8L53,9.8z"/>
			<path id="Shape_10_" class="st2" d="M64,7c0,0-2.2,1-2,1.8c0.2,0.7,1.7,1.6,2.5,1.3C65.1,9.6,64.2,7,64,7L64,7z"/>
			<path id="Shape_11_" class="st2" d="M3.3,11c0,0-1.9,2.5-2.2,2.5S1.4,11.3,3.3,11L3.3,11z"/>
		</g>
	</g>
</g>
<path class="st5" d="M24.2,5.5l-14-0.2c0,0,8.3-4,10.6-4.2C23.1,0.9,32,1,32,1.3C32,1.5,25.7,5.4,24.2,5.5z"/>
<path id="Combined-Shape_5_" class="st4" d="M57,8.9L46.9,7.7c0,0-1.5-3.8-2.7-6.7C46.2,1,53.3,2.8,57,8.9z"/>
<path id="Combined-Shape_1_" class="st4" d="M34.6,6.2l-4.7-1c0,0,3.6-2.5,5.1-3.3C34.8,3.5,34.7,4.5,34.6,6.2z"/>
<path id="Combined-Shape_3_" class="st4" d="M46,7.5L35.5,6.1c0,0,0-3.4,0.2-4.6c2.2-0.5,7.8-0.7,7.8-0.4C43.5,1.2,44.4,3.1,46,7.5z
	"/>
<path class="st5" d="M46,7.5L35.6,6.2c0,0,0.3-3.6,0.2-4.6c2.3-0.4,7.6-0.8,7.7-0.6C43.7,1.3,45.3,5.6,46,7.5z"/>
<path class="st5" d="M56.7,8.7l-9.5-1.1c0,0-2.1-5.3-2.8-6.6c2.5,0.2,4.6,0.8,8,3.2C53.3,4.9,55.7,6.9,56.7,8.7z"/>
<path class="st5" d="M34.5,6l-4.8-0.8c0,0,3.3-2.3,5.2-3.3C34.7,4,34.7,4.9,34.5,6z"/>
<path id="Combined-Shape_7_" class="st4" d="M58.8,9.3l-1.6-0.2c0,0-0.9-1.5-2-2.9C57.2,7.5,57.7,7.5,58.8,9.3z"/>
<path class="st5" d="M59.1,9.3l-1.6-0.4c0,0-0.2-0.4-1.5-2.3C56.3,6.8,58.6,8.3,59.1,9.3z"/>
<path id="Fill-8_2_" class="st6" d="M24.8,5.5c0.8-0.4,7-3.9,7.1-4.1C32,1.3,32,1.1,31,1.1s-10.1-0.2-11.4,0
	C18.4,1.6,16.3,2,9.8,5.4C9.8,5.4,24.1,5.9,24.8,5.5z"/>
<path id="Shape_8_" class="st1" d="M61,9.7c0,0.3-0.2,0.5-0.5,0.5h-1.9c-0.3,0-0.5-0.2-0.5-0.5V8.5c0-0.3,0.2-0.5,0.5-0.5h1.9
	C60.8,8,61,8.2,61,8.5V9.7L61,9.7z"/>
</svg>
