<svg id="Capa_1" enable-background="new 0 0 512 512" height="512" viewBox="0 0 512 512" width="512" xmlns="http://www.w3.org/2000/svg"><g><g><path d="m365.754 421.667h-5.272c-2.933 0-5.436-2.12-5.918-5.013l-10.207-61.241h-176.715l-10.207 61.241c-.482 2.893-2.985 5.013-5.918 5.013h-5.271c-3.431 0-6.213 2.781-6.213 6.213v31.92h231.934v-31.921c0-3.431-2.782-6.212-6.213-6.212z" fill="#f58c31"/><path d="m365.754 421.667h-5.272c-2.933 0-5.436-2.12-5.918-5.014l-10.207-61.24h-23-153.715l-9.354 56.124h167.341c2.933 0 5.436 2.12 5.918 5.014l.017.103c.482 2.893 2.985 5.013 5.918 5.013h5.272c3.431 0 6.213 2.781 6.213 6.213v31.92h23v-31.921c0-3.431-2.782-6.212-6.213-6.212z" fill="#f57931"/><path d="m397.1 504.5h-282.2c-4.418 0-8-3.582-8-8v-33.7c0-4.418 3.582-8 8-8h282.2c4.418 0 8 3.582 8 8v33.7c0 4.418-3.582 8-8 8z" fill="#fdbe40"/><path d="m397.1 454.8h-23c4.418 0 8 3.582 8 8v33.7c0 4.418-3.582 8-8 8h23c4.418 0 8-3.582 8-8v-33.7c0-4.418-3.582-8-8-8z" fill="#faa83c"/></g><g><path d="m57.2 362.913h-49.7c-4.143 0-7.5-3.357-7.5-7.5s3.357-7.5 7.5-7.5h49.7c4.143 0 7.5 3.357 7.5 7.5s-3.357 7.5-7.5 7.5z" fill="#8bdeff"/></g><g><path d="m51.188 468.299c-1.919 0-3.839-.732-5.304-2.196-2.929-2.93-2.929-7.678 0-10.607l35.142-35.143c2.93-2.928 7.678-2.928 10.608 0 2.929 2.93 2.929 7.678 0 10.607l-35.143 35.143c-1.464 1.463-3.384 2.196-5.303 2.196z" fill="#8bdeff"/></g><g><path d="m86.271 292.645c-1.919 0-3.839-.732-5.304-2.196l-35.144-35.144c-2.929-2.93-2.929-7.678 0-10.607 2.93-2.928 7.678-2.928 10.607 0l35.144 35.143c2.929 2.93 2.929 7.678 0 10.607-1.465 1.464-3.385 2.197-5.303 2.197z" fill="#8bdeff"/></g><g><path d="m504.5 362.913h-49.7c-4.143 0-7.5-3.357-7.5-7.5s3.357-7.5 7.5-7.5h49.7c4.143 0 7.5 3.357 7.5 7.5s-3.357 7.5-7.5 7.5z" fill="#8bdeff"/></g><g><path d="m460.811 468.299c-1.919 0-3.839-.732-5.304-2.196l-35.143-35.143c-2.929-2.93-2.929-7.678 0-10.607 2.93-2.928 7.678-2.928 10.607 0l35.143 35.143c2.929 2.93 2.929 7.678 0 10.607-1.464 1.463-3.384 2.196-5.303 2.196z" fill="#8bdeff"/></g><g><path d="m425.729 292.645c-1.919 0-3.839-.732-5.304-2.196-2.929-2.93-2.929-7.678 0-10.607l35.143-35.143c2.93-2.928 7.678-2.928 10.607 0 2.929 2.93 2.929 7.678 0 10.607l-35.144 35.144c-1.463 1.462-3.383 2.195-5.302 2.195z" fill="#8bdeff"/></g><g><path d="m365.754 305.7h-5.272c-2.933 0-5.436-2.121-5.918-5.014l-43.4-260.404-9.31-25.86c-.665-3.994.879.078-3.17.078l-85.366-1c-4.049 0-2.505-3.073-3.171.922l-9.334 26.005-43.377 260.26c-.482 2.893-2.985 5.014-5.918 5.014h-5.271c-3.431 0-6.213 2.781-6.213 6.212v31.921h231.934v-31.921c-.001-3.432-2.783-6.213-6.214-6.213z" fill="#f58c31"/><path d="m365.754 305.7h-5.272c-2.933 0-5.436-2.121-5.918-5.014l-43.342-260.055-10.368-26.209c-.665-3.994 1.879-4.922-2.17-4.922l-20-2c4.049 0 4.505 2.927 5.17 6.922l47.711 286.265c.482 2.893 2.985 5.014 5.918 5.014h5.272c3.431 0 6.213 2.781 6.213 6.212v31.921h23v-31.921c-.001-3.432-2.783-6.213-6.214-6.213z" fill="#f57931"/><path d="m298.683 7.5h-85.366c-4.049 0-7.505 2.927-8.171 6.922l-4.369 26.212h110.444l-4.369-26.212c-.664-3.995-4.12-6.922-8.169-6.922z" fill="#d0e2ed"/><path d="m283.853 14.422 4.369 26.212h23l-4.369-26.212c-.665-3.994-4.121-6.922-8.17-6.922h-23c4.049 0 7.505 2.927 8.17 6.922z" fill="#aabfcf"/><path d="m397.1 388.533h-282.2c-4.418 0-8-3.582-8-8v-33.7c0-4.418 3.582-8 8-8h282.2c4.418 0 8 3.582 8 8v33.7c0 4.419-3.582 8-8 8z" fill="#fdbe40"/><path d="m397.1 338.833h-23c4.418 0 8 3.582 8 8v33.7c0 4.418-3.582 8-8 8h23c4.418 0 8-3.582 8-8v-33.7c0-4.418-3.582-8-8-8z" fill="#faa83c"/><path d="m151.532 305.699h21.635c4.143 0 7.5-3.357 7.5-7.5s-3.357-7.5-7.5-7.5h-14.067l-1.665 9.988c-.481 2.887-2.976 5.004-5.903 5.012z" fill="#f57931"/></g></g></svg>