<?xml version="1.0" encoding="UTF-8" standalone="no"?>
<svg width="67px" height="30px" viewBox="0 0 67 30" version="1.1" xmlns="http://www.w3.org/2000/svg" xmlns:xlink="http://www.w3.org/1999/xlink">
    <!-- Generator: sketchtool 39.1 (31720) - http://www.bohemiancoding.com/sketch -->
    <title>B7530359-35B8-400F-BF1A-C69DEB012243</title>
    <desc>Created with sketchtool.</desc>
    <defs>
        <polyline id="path-1" points="0 0 66.8181907 0 66.8181907 29.6938155 0 29.6938155"></polyline>
    </defs>
    <g id="Page-1" stroke="none" stroke-width="1" fill="none" fill-rule="evenodd">
        <g id="NOTES" transform="translate(-32.000000, -1623.000000)">
            <g id="Sedan_Windshield" transform="translate(32.000000, 1623.000000)">
                <path d="M66.7270966,25.314687 C66.6769024,24.0652741 52.1477906,23.630459 34.2738082,24.3416447 C16.3998257,25.0522256 1.94993615,26.6402983 2.00013037,27.8891065 C2.04971985,29.1379146 16.5794364,29.5727297 34.4528141,28.861544 C52.3261918,28.1503584 66.7766861,26.5622856 66.7270966,25.314687" id="Fill-1" fill-opacity="0.1" fill="#404041"></path>
                <g id="Group-5">
                    <mask id="mask-2" fill="white">
                        <use xlink:href="#path-1"></use>
                    </mask>
                    <g id="Clip-4"></g>
                    <path d="M66.6386977,16.4113158 C66.8322176,15.7176679 66.1669929,13.3863578 66.3339039,11.3598415 C66.50021,9.33392995 65.9450498,8.3905204 65.3898896,8.22360948 C64.8353341,8.05669856 64.6678184,7.97384785 64.3079923,7.5571753 C64.1410814,7.14171225 63.6687719,6.78067667 62.7253623,6.67061223 C61.7819528,6.55873353 56.6198093,2.39624127 53.2616341,1.28592081 C49.903459,0.175600338 43.1871087,-0.157012003 38.0806021,0.0649311407 C32.9740956,0.285664785 29.588102,0.397543481 25.4806419,1.6191379 C21.3725772,2.84012756 13.1026249,8.33548818 13.1026249,8.33548818 C13.1026249,8.33548818 6.77391915,10.6105566 3.86023504,11.5551756 C0.945341441,12.4979804 0.779640021,13.7752118 0.723398298,14.1634611 C0.668366074,14.5523152 0.723398298,14.912746 0.251693524,15.3850555 C-0.22001125,15.8573651 0.0853873533,20.8241744 0.251693524,22.5458969 C0.418604444,24.2652003 2.6942776,24.0160434 3.02749469,24.0160434 C3.30507481,24.1545311 2.97185772,24.5718084 3.02749469,24.9884809 C3.09583141,25.0217422 3.60684492,25.0543987 4.41720953,25.0858456 C5.07517721,26.1731856 6.32217111,26.8535291 8.66739049,26.8535291 C10.7307965,26.8535291 11.9602527,26.2590601 12.6793001,25.2944843 C15.0366144,25.3501213 17.3612723,25.4130152 19.041267,25.4867947 C20.604545,25.5563409 22.8245812,25.5333604 25.1377488,25.4686522 C25.76306,27.3228148 27.2513491,28.5492472 30.7195887,28.5492472 C34.306964,28.5492472 35.8164192,27.0676105 36.4006074,24.9001875 L54.4548053,22.4896551 C54.4548053,22.4896551 55.3468111,22.7236933 56.8447762,22.7013175 C57.2789864,24.2083538 58.253843,25.1892579 60.4013092,25.1892579 C63.2140001,25.1892579 64.0539974,23.2903438 64.2457031,20.7231812 C65.8488946,19.8475037 66.6513975,18.9960161 66.6743779,18.7970534 C66.7100582,18.4922596 66.9997333,16.5231945 66.6386977,16.4113158" id="Fill-3" fill="#808181" mask="url(#mask-2)"></path>
                </g>
                <path d="M14.0000007,14.191869 C13.9987912,14.0249581 15.6648766,12.1103205 18.6341977,11.8049219 C21.6041235,11.4995233 27.4327012,11 27.4327012,11 C27.4327012,11 25.0735726,13.4425841 24.4077432,13.6639225 C23.741309,13.8852609 17.413208,15.1624923 16.3028876,15.1903107 C15.1931718,15.2181292 14.0018149,14.7748477 14.0000007,14.191869" id="Fill-6" fill="#FEFEFE"></path>
                <path d="M4.38082016,11 C4.38082016,11 1.52458728,11.1294164 1.12787147,13.148071 C0.731760411,15.165516 1.35586211,15.706767 1.64735147,14.7488435 C1.93944558,13.7903152 2.93788735,12.0843162 3.52086607,12.0843162 C3.60432153,11.54367 3.66782025,11.2364571 4.38082016,11" id="Fill-8" fill="#FEFEFE"></path>
                <path d="M14,7.78983859 C14,7.78983859 32.4230952,8.23432963 33.5358346,7.67977414 C34.6485741,7.12400916 41.2542552,1.54579783 41.4477751,1.37828216 C41.6425045,1.21137124 41.614686,1.01845609 40.2273902,1.01845609 C38.8388848,1.01845609 27.460519,0.852149915 25.7950383,1.51797935 C24.1301624,2.18320403 22.8541405,2.21162726 14,7.78983859" id="Fill-10" fill="#FEFEFE"></path>
                <path d="M63,8.26158739 C63,8.26158739 64.4695418,7.94772229 64.657619,8.00759251 C64.8456961,8.06564848 65.9971396,8.09407172 65.7885009,11.2018805 C65.4976163,11.229699 65.2895824,11.3119449 65.2478547,10.8553589 C65.2061269,10.3969586 65.2309217,9.89743536 64.4072526,9.43903508 C63.5829787,8.98184429 63,8.26158739 63,8.26158739" id="Fill-12" fill="#FEFEFE"></path>
                <path d="M46.9101262,1.00722721 C46.9101262,1.00722721 42.7059062,0.651029628 39,4.93991457 L39,8.97782839 L49.1168579,7.96608212 C49.1168579,7.96608212 48.949947,3.44557804 46.9101262,1.00722721" id="Fill-14" fill="#FEFEFE"></path>
                <path d="M48,1 C48,1 50.0398208,3.43351283 50.10211,7.69760304 C53.723956,7.30572523 56.6382449,6.93017566 56.6382449,6.93017566 C56.6382449,6.93017566 55.4311644,3.46012182 54.0982961,2.1435817 C52.3191224,1.40699655 49.6255672,1 48,1" id="Fill-16" fill="#FEFEFE"></path>
                <polygon id="Fill-18" fill="#FEFEFE" points="34 9.0790368 38.1915202 5 38.1915202 8.57890878"></polygon>
                <path d="M55,2 L59.752728,6.10685528 L57.3760616,6.2737662 C57.3760616,6.2737662 55.6549439,2.84967334 55,2" id="Fill-20" fill="#FEFEFE"></path>
                <polygon id="Fill-22" fill="#FEFEFE" points="2 13 2.2080339 14.8735146 10.6176834 15.1226715 12.532321 13.2497616"></polygon>
                <path d="M25.5273417,8.31861039 C26.1012492,7.24759865 27.1589565,6.51948 28.3829699,6.51948 C29.6087975,6.51948 30.668319,7.25001765 31.2422265,8.32465789 C31.5833053,8.32586739 31.87419,8.32707688 32.1070186,8.32707688 C31.4315132,6.9440143 30.0938068,6 28.551695,6 C27.012607,6 25.6767149,6.93978105 25,8.31861039 L25.5273417,8.31861039 Z" id="Fill-24" fill="#808181"></path>
                <path d="M14,7.78983859 C14,7.78983859 32.4230952,8.23432963 33.5358346,7.67977414 C34.6485741,7.12400916 41.2542552,1.54579783 41.4477751,1.37828216 C41.6425045,1.21137124 41.614686,1.01845609 40.2273902,1.01845609 C38.8388848,1.01845609 27.460519,0.852149915 25.7950383,1.51797935 C24.1301624,2.18320403 22.8541405,2.21162726 14,7.78983859" id="Fill-8" fill-opacity="0.2" fill="#FF3333"></path>
                <path d="M33.5358346,7.67977414 C34.6485741,7.12400916 41.2542552,1.54579783 41.4477751,1.37828216 C41.6425045,1.21137124 41.614686,1.01845609 40.2273902,1.01845609 C38.8388848,1.01845609 27.460519,0.852149915 25.7950383,1.51797935 C24.1301624,2.18320403 22.8541405,2.21162726 14,7.78983859 C14,7.78983859 32.4230952,8.23432963 33.5358346,7.67977414 Z" id="Fill-8" stroke="#FF3333" stroke-width="0.5"></path>
            </g>
        </g>
    </g>
</svg>